<?xml version="1.0" encoding="UTF-8"?>
<svg width="24px" height="24px" viewBox="0 0 24 24" version="1.1" xmlns="http://www.w3.org/2000/svg" xmlns:xlink="http://www.w3.org/1999/xlink">
    <!-- Generator: Sketch 59.1 (86144) - https://sketch.com -->
    <title>emblem</title>
    <desc>Created with Sketch.</desc>
    <g id="emblem" stroke="none" stroke-width="1" fill="none" fill-rule="evenodd">
        <g id="Group" transform="translate(2.000000, 3.100000)" fill="#FFFFFF">
            <path d="M17.7139674,9.53304529 C17.7165629,9.54197535 18.0116067,9.50942243 18.1383431,9.44713198 C18.4647081,9.28687484 18.7492383,9.07677654 18.9730616,8.77447429 C19.122981,8.57198633 19.0488571,8.08743173 19.0378155,8.04880813 C18.9656712,7.79678694 18.7747527,7.71302916 18.5494777,7.85520624 C18.1929353,8.08017331 17.8438272,8.31719375 17.4965227,8.55632574 C17.4438662,8.59257385 17.3945089,8.6636184 17.3840392,8.72542496 C17.3538618,8.90297034 17.3357377,9.08377101 17.3290512,9.26386784 C17.320649,9.48892289 17.3738334,9.53581669 17.5932577,9.53308928 C17.6335089,9.53260539 17.6737162,9.53304529 17.7139674,9.53304529 Z M3.10039001,8.50780429 C3.07403974,8.35528947 3.09515515,8.17730418 2.90362081,8.10260843 C2.52239973,7.95383279 2.14522577,7.79383959 1.76000156,7.65636949 C1.42131922,7.53548378 1.41749206,7.54630543 1.24153033,7.8581536 C1.00244233,8.28200141 1.00824907,8.31217884 1.39778434,8.61566883 C1.43970722,8.64830973 1.48536929,8.67866313 1.53367079,8.70035041 C1.88585818,8.85845202 2.23245879,9.03309404 2.59542385,9.1610622 C2.74142809,9.21253101 2.92706771,9.17377544 3.08714889,9.14016675 C3.11200349,9.13493189 3.09682679,8.93693095 3.09937823,8.82805464 C3.10047799,8.78111684 3.11033185,8.56534378 3.10039001,8.50780429 Z M3.22998582,6.0646637 C3.58397683,6.18893667 3.93158922,6.33146566 4.28593215,6.45455089 C5.24307596,6.78694259 6.20369502,7.11374751 7.21191172,7.25284526 C7.80881789,7.33523934 8.41280652,7.3648449 9.01134033,7.43712118 C9.8661624,7.54036672 10.7054558,7.38389275 11.5472128,7.29696766 C12.5674388,7.19156659 13.5813303,7.02330318 14.6021283,6.92599635 C15.3064151,6.85886695 15.9696148,6.62884098 16.6570093,6.500037 C16.8993086,6.45463887 17.1402882,6.40193834 17.3966205,6.34954573 C17.4094217,6.54437935 17.4198474,6.72289253 17.4332205,6.90118575 C17.4454938,7.0641263 17.5296915,7.10521337 17.6800068,7.05084119 C17.9443893,6.955206 18.2084199,6.85697536 18.4776853,6.77686879 C18.6681639,6.72016512 18.8657689,6.67322733 19.0628021,6.65941433 C19.1392574,6.6540475 19.2600551,6.73274638 19.2972711,6.80555055 C19.5225021,7.24593876 19.7402987,7.69103395 19.9357922,8.14523515 C19.9941235,8.28068169 20.0020418,8.45422395 19.9822901,8.60361545 C19.9385196,8.93459946 19.8557296,9.25282624 19.6866304,9.55451262 C19.5038501,9.88065769 19.2317253,10.0971786 18.9401567,10.3006343 C18.6155513,10.5270971 18.2895382,10.7533839 17.9495802,10.9552999 C17.789499,11.0504073 17.5950613,11.0872712 17.417032,11.152773 C17.3673668,11.171073 17.2979939,11.1846221 17.2766586,11.2223659 C17.1903053,11.3752326 17.0766781,11.529727 17.049404,11.6961428 C16.8824163,12.7154011 16.7349604,13.7379587 16.5838093,14.7597684 C16.5200231,15.1908747 16.4795519,15.62616 16.396322,16.0532631 C16.3536513,16.2723794 16.2505377,16.4826097 16.1530549,16.6864614 C16.1209859,16.7534148 16.0273303,16.8106903 15.950347,16.8332134 C15.4431813,16.9818131 14.9380392,17.1437859 14.4221194,17.2540699 C13.9536213,17.3541921 13.4727179,17.3979186 12.9963895,17.4599451 L11.8421521,17.6204552 C11.4572523,17.672232 11.0719181,17.7172012 10.6853082,17.7401202 C10.056509,17.7773361 9.42146312,17.6974055 8.78883673,17.6851761 C7.93093533,17.6685917 7.09296159,17.5290541 6.27082441,17.2947611 C5.71082622,17.1351638 5.15619486,16.9559907 4.60195941,16.7770377 C4.45868257,16.7308037 4.32732714,16.6488056 4.1877455,16.5899024 C4.0116518,16.5155585 3.9748758,16.3558733 3.94733779,16.1972878 C3.83595402,15.5557313 3.72404236,14.9141749 3.62493192,14.2706828 C3.50343035,13.4818024 3.38835138,12.6917782 3.28303828,11.9005663 C3.23715626,11.5557253 3.22400312,11.2065733 3.19294588,10.8596647 C3.17337014,10.6413402 3.04100293,10.5815132 2.84128637,10.6753008 C2.77090168,10.7083816 2.66752416,10.7126047 2.59274043,10.688322 C1.98523257,10.4912889 1.43557212,10.1970369 0.990037031,9.72523949 C0.700492009,9.41867017 0.398805629,9.12345038 0.0983949704,8.82735079 C-0.00797389352,8.7224776 -0.0213029943,8.62781019 0.050973285,8.49038408 C0.406547944,7.81460307 0.75358846,7.13424705 1.09886936,6.45309921 C1.18170334,6.28976274 1.28323326,6.27339829 1.43992718,6.35183323 C1.8710774,6.5676063 2.30728652,6.77317359 2.74213194,6.98151227 C2.79439257,7.00654283 2.85039239,7.02365511 2.94545571,7.06007918 C2.94545571,6.77761662 2.94972278,6.5253315 2.94431196,6.27322233 C2.9385932,6.00496868 2.97048627,5.97355951 3.22998582,6.0646637 Z M10.8777663,12.9615002 C10.7821008,12.9723922 10.7370474,13.1173922 10.7274423,13.2068813 L10.7274423,13.2068813 C10.6352346,14.3605293 10.5501853,15.5050402 10.4820289,16.6502731 C10.4755672,16.7579264 10.5250565,16.9817972 10.6512,16.9842748 C10.7715245,16.9863708 10.8137904,16.7808556 10.8255941,16.671771 L10.8255941,16.671771 L10.8351133,16.5825407 C10.8916221,16.0470602 10.9371331,15.509816 10.9674826,14.9719239 C11.0016926,14.360625 11.0129521,13.7473645 11.0349424,13.120732 C10.9772793,13.0622283 10.9480554,12.9531631 10.8777663,12.9615002 Z M8.61502683,12.8983924 C8.35354021,12.871601 7.9359562,12.8427403 7.69652181,12.9107135 C7.57823785,12.9442454 7.59009385,13.1712041 7.58575271,13.3427902 L7.58575271,13.3427902 L7.58056585,13.5121548 C7.57084334,13.8451157 7.56445349,14.1781658 7.55971791,14.5112513 L7.55971791,14.5112513 L7.53772876,16.5097555 C7.53440954,16.7377566 7.65938429,16.8302309 7.8532139,16.7825885 C8.04437253,16.7356618 8.22930283,16.6441229 8.40000271,16.5439917 C8.45369921,16.5129043 8.49248094,16.3727347 8.46646506,16.3148165 C8.44220644,16.2616759 8.31652059,16.2199675 8.24460203,16.2311269 C8.11759384,16.2503677 7.99713985,16.3136565 7.82357492,16.3763853 C7.83018024,16.2388421 7.83669326,16.1027216 7.84313527,15.9677192 L7.84313527,15.9677192 L7.91094158,14.5389443 C7.93866333,14.5587125 8.25241903,14.5027923 8.28014079,14.5225604 L8.28014079,14.5225604 C8.40281203,14.4515207 8.38879784,14.2763537 8.26357198,14.2221168 L8.26357198,14.2221168 L7.93203188,14.0781155 C7.93099346,14.0042348 7.93195063,13.8767739 7.92770199,13.7450672 L7.92770199,13.7450672 L7.92636387,13.7079534 C7.91976852,13.555132 7.90646375,13.4021998 7.89582996,13.248552 C8.12541141,13.2328399 8.32591451,13.2296905 8.52249616,13.1994415 C8.58450182,13.1904612 8.65765539,13.1198073 8.68335104,13.059007 C8.70013714,13.0201561 8.64593492,12.9015616 8.61502683,12.8983924 Z M14.0009754,12.6924182 C13.6385918,12.6487666 13.3697692,12.9168959 13.3466676,13.2847471 C13.3213191,13.6851678 13.2863517,14.0853031 13.2585388,14.4854298 C13.2168951,15.0867924 13.1756965,15.6880358 13.1393075,16.2894218 L13.1393075,16.2894218 C13.1285967,16.4764052 13.1339665,16.7073883 13.3697754,16.6919112 C13.5892138,16.6778355 13.8074108,16.5994483 14.0189146,16.5168211 L14.0189146,16.5168211 L14.1350828,16.4711026 C14.1476347,16.466308 14.1580715,16.4554003 14.1669897,16.4406054 C14.2369991,16.3226043 14.1537459,16.1650357 14.0179343,16.1460797 C14.003148,16.1443162 13.9886003,16.143443 13.9740845,16.1444697 C13.8459069,16.1540043 13.7208968,16.2056314 13.5601925,16.248692 C13.5684663,15.9794986 13.5732359,15.7497076 13.5828195,15.5228195 L13.5828195,15.5228195 L13.5850318,15.4724329 C13.5968708,15.2192469 13.614974,14.9662909 13.629795,14.724234 C13.8399639,14.7108607 14.0196401,14.7190174 14.1877695,14.6787385 C14.2576922,14.6619113 14.3637109,14.5180393 14.3465281,14.4734995 C14.3154385,14.3930846 14.2092884,14.3032003 14.1240127,14.2912197 C13.9865077,14.2712861 13.8407324,14.3113007 13.6772356,14.3279134 L13.6772356,14.3279134 L13.6911397,13.2205965 C13.8291109,13.2084378 13.9545325,13.2277921 14.0466558,13.1816371 L14.0466558,13.1816371 L14.0720216,13.1676835 C14.2569901,13.0584806 14.2457484,12.7690149 14.0415984,12.7015726 C14.0284415,12.6969868 14.0147521,12.6939751 14.0009754,12.6924182 Z M9.45917001,12.8649636 C9.3395698,12.8726769 8.75981438,13.298075 8.91176345,15.1668166 C8.90207372,15.5538467 9.01886178,15.9541918 9.14344029,16.3295265 L9.14344029,16.3295265 L9.15657747,16.3689413 C9.20555929,16.5161309 9.46202875,16.7165089 9.57863836,16.6905118 C9.75627984,16.6510405 9.91638371,16.4931598 10.0587834,16.345855 L10.0587834,16.345855 L10.1073683,16.2954854 C10.1265462,16.2756512 10.118306,16.2294977 10.102317,16.1754177 L10.102317,16.1754177 L10.0987794,16.1637145 C10.0682925,16.0659616 9.96464965,16.0121442 9.86594249,16.0390698 C9.83611649,16.0470616 9.80676762,16.0568341 9.7793826,16.0703746 C9.7465683,16.0868011 9.71619499,16.1087763 9.68588559,16.1345513 C9.61467875,16.1946639 9.50492522,16.16968 9.46771402,16.0842256 C9.18265112,15.4334687 9.1963981,14.0709318 9.49374128,13.4979111 C9.52872146,13.4308061 9.6298251,13.4466567 9.64704215,13.5198149 C9.66763103,13.6073376 9.68934024,13.6883574 9.72535006,13.7622056 C9.75127006,13.8144239 9.8696695,13.8948234 9.93582203,13.8532416 C10.1182303,13.738045 10.0355808,13.3904186 9.95741392,13.216219 L9.95741392,13.216219 C9.86814429,13.0254947 9.62239363,12.8547053 9.45917001,12.8649636 Z M6.86219625,13.0359825 C6.53373972,12.7895272 5.81296192,13.0589991 5.77200072,13.4616947 C5.68324792,14.3395306 5.60770737,15.2185975 5.55018855,16.0990382 C5.5469811,16.1476101 5.55395707,16.1967934 5.56686412,16.246773 C5.60537591,16.3958137 5.80462457,16.4111313 5.86866994,16.270872 C5.89206101,16.2192774 5.90939443,16.1664433 5.91508965,16.1129106 C5.97041248,15.5804057 5.98396007,15.0433493 6.01473266,14.4868866 L6.01473266,14.4868866 L6.03142203,14.4838969 C6.57915536,14.3881937 6.82856263,14.5856663 6.84857745,15.1504349 C6.86176646,15.5290784 6.80958653,15.9094924 6.81116932,16.2893373 C6.81121214,16.3251103 6.8199836,16.3614071 6.83344527,16.3974015 C6.87698695,16.5136042 7.02966801,16.5385367 7.10786733,16.4421974 C7.14094987,16.4018427 7.16640068,16.3597159 7.17347193,16.3148799 C7.22627624,15.9848739 7.24430867,15.6479628 7.25533775,15.3134053 C7.27153523,14.8076063 7.13652186,14.3642719 6.68189609,14.0938914 C6.7956463,13.9112091 6.91758641,13.7501886 7.00165331,13.5706886 C7.09706218,13.3676332 7.0510578,13.1781359 6.86219625,13.0359825 Z M12.5371569,12.8117314 C12.3034117,12.5439156 11.9985033,12.6103151 11.7351043,12.7277371 L11.7351043,12.7277371 L11.7107877,12.7387699 C11.6028451,12.7882095 11.5270086,12.9984257 11.5124575,13.1435538 C11.4108766,14.142677 11.3236368,15.143683 11.2494901,16.1454748 C11.2485849,16.1581226 11.2491345,16.1708578 11.2506937,16.1837995 C11.2719498,16.3575031 11.5314492,16.3857812 11.5913985,16.2213318 L11.5913985,16.2213318 C11.5982709,16.2019692 11.601167,16.1895301 11.6032792,16.1766385 C11.6568506,15.8088642 11.6769287,15.4361528 11.7019965,15.132433 L11.7019965,15.132433 L11.7056157,15.0895217 C11.969598,15.0187879 12.2089029,15.0162155 12.3667312,14.9018796 C13.1287032,14.3498853 12.9683585,13.3045263 12.5371569,12.8117314 Z M11.956386,12.9840479 C12.072817,13.0072426 12.2201179,13.0512704 12.2829825,13.1398706 C12.6736703,13.6898023 12.4464211,14.3890875 11.7718257,14.6991458 C11.7870604,14.1826309 11.7955879,13.6927237 11.8218986,13.2032999 C11.8263753,13.1238518 11.9250881,12.9776432 11.956386,12.9840479 Z M6.48288734,13.2621478 C6.60569958,13.2592993 6.70552371,13.3718721 6.68150259,13.4923416 C6.67707664,13.5149981 6.66902546,13.5348091 6.65562374,13.5488968 C6.50271302,13.7108855 6.32614526,13.850582 6.12136531,14.0277449 L6.12136531,14.0277449 L6.08137698,14.0625184 C5.99448416,13.6420746 6.14461627,13.4224476 6.4096099,13.2789197 C6.43088189,13.2674944 6.45539788,13.2628338 6.48288734,13.2621478 Z M10.8342021,8.28640445 C10.7351199,8.29768541 10.6903296,8.45282458 10.6829839,8.54115259 C10.5916704,9.68543352 10.5066211,10.8299445 10.4384647,11.9751773 C10.432003,12.0828306 10.4814923,12.3067014 10.6076358,12.309179 C10.7279603,12.311275 10.7702262,12.1057598 10.7820299,11.9966752 L10.7820299,11.9966752 L10.7915491,11.907445 C10.8480579,11.3719644 10.8935689,10.8347203 10.9239184,10.2968282 C10.9581284,9.68552924 10.9693879,9.07226874 10.9913782,8.44563619 C10.9337151,8.38713251 10.9044912,8.27806729 10.8342021,8.28640445 Z M7.34544081,7.71150738 C7.08676771,7.72370671 6.83197952,7.84656016 6.57811377,7.92655913 C6.26295169,8.02580699 6.14920172,8.98057863 6.12630928,9.20100687 L6.12630928,9.20100687 L6.1083621,9.37867051 C6.02438612,10.1993257 5.92451083,11.0179992 5.85270827,11.8397902 C5.81847132,12.2301873 6.00087057,12.3802749 6.36421581,12.2352043 C6.67579191,12.1108214 6.20869902,11.064833 6.64275366,10.3633481 C6.7809298,10.1400387 7.47016339,10.1416443 7.61345341,9.90656459 C7.93880493,9.54313125 8.17786021,9.13363772 8.2055766,8.62809211 C8.23564496,8.06365927 7.90710157,7.68511118 7.34544081,7.71150738 Z M9.02245324,8.02458838 C8.72114904,8.03036401 8.72996597,8.33161802 8.66024486,8.52402033 L8.66024486,8.52402033 L8.65240564,8.54579856 C8.58985552,8.72008394 8.53157279,8.89587951 8.50202861,9.07897691 C8.35303438,10.0014761 8.22080295,10.9276017 8.11639692,11.8564251 C8.11484625,11.8702838 8.11501803,11.8841714 8.11691223,11.8980879 C8.14760187,12.1160976 8.47806944,12.1419265 8.53586495,11.9294593 L8.53586495,11.9294593 L8.54616898,11.888485 C8.62015022,11.5861421 8.65811146,11.274929 8.7108504,10.9680742 L8.7108504,10.9680742 C8.98734148,10.928154 9.10323816,11.0124324 9.09899064,11.2887832 L9.09899064,11.2887832 L9.098717,11.315357 C9.0973801,11.5634983 9.1298971,11.8148708 9.17765204,12.0590358 C9.19530836,12.1481139 9.32424087,12.2916636 9.37600855,12.2808794 C9.47445577,12.260543 9.5955751,12.1636646 9.63202097,12.0696184 C9.6958949,11.9054952 9.73624773,11.7177677 9.72733348,11.5427919 C9.68696349,10.755549 9.63340492,9.96909759 9.56786847,9.18376226 C9.55003414,8.97358447 9.4993347,8.76508762 9.4466495,8.5589188 L9.4466495,8.5589188 L9.41538405,8.4370587 C9.36200704,8.23224634 9.28866419,8.01913757 9.02245324,8.02458838 Z M14.8533103,8.81651221 C14.6454945,8.7567568 14.355758,8.77411076 14.136127,8.84832637 C13.859263,8.94221143 13.7281501,9.19364437 13.7963375,9.42319423 C13.8560704,9.62356523 13.9794103,9.80915039 14.10409,9.98758832 L14.10409,9.98758832 L14.1434344,10.0437085 C14.3487743,10.3346123 14.6060642,10.5985945 14.7884488,10.8999831 C14.9218195,11.119947 14.8741696,11.3765955 14.6197874,11.5775321 C14.3898534,11.7593102 14.1457807,11.8010698 13.896034,11.6489299 C13.887485,11.6437348 13.8782428,11.6395134 13.8673184,11.6361367 C13.7671707,11.6042664 13.6583317,11.6984384 13.6818215,11.7878842 C13.7731687,12.1376997 14.082011,12.2397277 14.5059123,12.0749248 C15.1859161,11.8099801 15.5079349,11.2524816 15.223652,10.7096944 C15.045068,10.3690702 14.7524516,10.0783065 14.5053482,9.76864981 C14.4291039,9.67285191 14.2834102,9.59920886 14.2635956,9.49498855 C14.2420119,9.38060449 14.2829073,9.19668432 14.3791601,9.12676642 C14.5244552,9.02085616 14.7151055,9.04147801 14.8084257,9.21346868 L14.8084257,9.21346868 C14.8649843,9.31414736 15.0468517,9.27171999 15.0717978,9.158264 C15.1079231,8.99571558 15.0409084,8.87025922 14.8533103,8.81651221 Z M12.1205924,8.7518083 C12.0867173,8.55780322 11.9135212,8.45729091 11.7885127,8.54039993 C11.7639255,8.55697887 11.7408465,8.57581114 11.7199204,8.5982442 C11.6638174,8.65867287 11.6265872,8.78434775 11.6238726,8.88927457 C11.5984074,9.82775203 11.5738599,10.767025 11.5745931,11.7094958 C11.5749956,11.835995 11.7336361,12.0998525 11.7920352,12.0944425 C11.908888,12.0835121 12.0495559,11.9634305 12.1018713,11.8271348 C12.1639508,11.6657892 12.1428062,11.4394092 12.1598709,11.2073499 C12.421283,11.5059902 12.6486515,11.8045368 12.9060716,12.0383301 C12.9502645,12.0784844 13.0126192,12.0783988 13.0802153,12.0675022 L13.0802153,12.0675022 L13.0933604,12.0652661 C13.2068351,12.0452574 13.2786951,11.9078818 13.2609217,11.7529075 C13.2525504,11.682333 13.240624,11.613645 13.2192144,11.5495514 C13.1821243,11.4389462 13.0794794,11.3601549 13.0063298,11.2667911 L13.0063298,11.2667911 L12.2630855,10.3171367 C12.5797655,10.0983019 12.8586591,9.94130147 13.1007265,9.71824005 C13.1331537,9.68845734 13.1499585,9.63050735 13.1603783,9.56101898 L13.1603783,9.56101898 L13.1625925,9.54539394 C13.185297,9.37219761 13.0839817,9.19658372 12.949236,9.16945414 C12.8961522,9.15881139 12.8472277,9.15831841 12.8079475,9.18207317 C12.5981765,9.31045429 12.4130164,9.50045774 12.1535335,9.73009087 L12.1535335,9.73009087 L12.1232578,9.75676162 L12.08978,9.78595245 C12.107991,9.36993683 12.1339201,9.08945642 12.1260068,8.80582365 C12.1256413,8.78800143 12.1235305,8.76973115 12.1205924,8.7518083 Z M9.01626205,9.25856032 C9.03675212,9.49849441 9.19170733,10.1544179 9.18515018,10.3935908 C9.18321868,10.4782855 8.78274993,10.4172397 8.74453408,10.3935908 C8.79519516,10.0931347 8.98800411,9.25747897 9.01626205,9.25856032 Z M7.16884633,8.19866244 C7.68446427,8.12312083 7.86781164,8.33920484 7.73368608,8.83994026 C7.58960721,9.37952785 7.09141501,9.81551562 6.51354453,9.88113308 C6.55263944,9.40736876 6.57297583,8.96153281 6.6309617,8.52087672 C6.66816076,8.23915003 6.93248275,8.23387001 7.14045937,8.20296742 L7.14045937,8.20296742 Z M13.749504,7.87637913 C13.620309,7.82308994 13.4723762,7.88462383 13.419087,8.0138189 L13.419087,8.0138189 L13.2378083,8.4533138 C13.1988687,8.54771939 13.2419218,8.65598704 13.3350579,8.69787222 C13.4323648,8.7416331 13.5470273,8.71099253 13.6095343,8.62452559 L13.6095343,8.62452559 L13.8668932,8.26851631 C13.8716403,8.26194969 13.8760738,8.25516208 13.8801791,8.24817628 C13.9520407,8.12589183 13.9111648,7.9685054 13.7888804,7.89664384 L13.7888804,7.89664384 L13.7812217,7.89214313 Z" id="Fill-39"></path>
            <path d="M16.7485974,3.57018627 C16.8569898,3.53851316 16.9520532,3.50582826 17.049492,3.48326117 C17.2513641,3.43645535 17.3548735,3.50358475 17.3974563,3.70365324 C17.4627821,4.0104865 17.5240168,4.31819957 17.5935216,4.62402105 C17.6205318,4.74297118 17.5849435,4.80064263 17.4726799,4.85558668 C16.8640283,5.15331392 16.2241435,5.28717681 15.5484065,5.35140284 C14.7842927,5.42398705 14.0314844,5.60892282 13.269966,5.71872294 C12.8774834,5.77533863 12.4763347,5.8016449 12.0798489,5.79487038 C11.2346607,5.78048551 10.3887247,5.75448716 9.54547215,5.69800345 C8.6418207,5.63747261 7.74067671,5.53809823 6.83882887,5.45156905 C6.70223858,5.43850389 6.56731992,5.40533511 6.43231329,5.37801705 C6.19933996,5.3308593 5.9633313,5.29351143 5.73488899,5.2297253 C5.17911387,5.07457105 4.62857362,4.90076485 4.07266653,4.7460945 C3.77639098,4.66370042 3.47400075,4.60246574 3.17310619,4.53753586 C3.02499041,4.50555482 2.95381389,4.44581581 2.98737859,4.27495697 C3.01658824,4.12644527 2.98715864,3.96671602 3.01364088,3.81728052 C3.05411208,3.58923412 3.11209147,3.3631233 3.18265212,3.14259927 C3.19752088,3.09618936 3.29742315,3.05624605 3.36098933,3.05153908 C3.43766465,3.04586431 3.51724334,3.08123262 3.59567828,3.09838889 C3.80498476,3.14418293 3.9872811,3.1351209 4.17921136,2.99114021 C4.60046373,2.67515694 5.10718952,2.53289189 5.61039606,2.42005643 C6.47252054,2.22671848 7.34036378,2.05401205 8.21234212,1.91363858 C8.39916948,1.88354912 8.60042571,1.88750826 8.78615331,1.83062863 C8.84131731,1.81373631 8.91720081,1.72593141 8.9131097,1.67644217 C8.88451591,1.33142522 8.84298895,0.987200087 8.7944675,0.644294672 C8.75478813,0.364031632 8.78368985,0.309747439 9.05735432,0.23650337 C9.71201993,0.0612894806 10.3748238,-0.0407243305 11.054256,0.028516609 C11.2135453,0.0447050879 11.3701513,0.085880132 11.5288248,0.110030879 C11.6454874,0.127759023 11.7638216,0.149270344 11.8808362,0.146498947 C12.1566562,0.139944373 12.378236,0.409957642 12.3389525,0.679970912 C12.2923227,1.00061717 12.1570961,1.31017784 12.2351791,1.64943205 C12.2727909,1.81276852 12.350566,1.86727266 12.5060282,1.88385706 C12.8319533,1.91865349 13.1686561,1.92938715 13.4781288,2.02431851 C14.0050022,2.18585137 14.5189424,2.39331025 15.0294513,2.60301263 C15.4419936,2.77246378 15.8404589,2.97596351 16.2471505,3.16001948 C16.5615061,3.30224055 16.5628698,3.29929319 16.7485974,3.57018627" id="Fill-41"></path>
        </g>
    </g>
</svg>